<svg xmlns="http://www.w3.org/2000/svg" width="25" height="24" viewBox="0 0 25 24">
    <path fill="#999" fill-rule="evenodd" d="M14.563 2.5c.779 0 1.419.595 1.491 1.356l.007.144v.5h2.497c.779 0 1.418.595 1.491 1.356l.007.144c0 .651-.414 1.205-.993 1.413l-.001 11.62c0 1.326-1.03 2.41-2.333 2.495l-.164.006h-7.99c-1.323 0-2.406-1.032-2.491-2.336l-.005-.164V7.416C5.493 7.211 5.074 6.655 5.074 6c0-.78.595-1.42 1.354-1.493l.144-.007H9.07L9.07 4c0-.78.594-1.42 1.354-1.493l.144-.007h3.995zm3.5 5H7.077v11.534c0 .73.523 1.34 1.214 1.473l.14.02.144.007h7.99c.779 0 1.419-.595 1.491-1.356l.007-.144V7.5zM12.566 10c.246 0 .45.177.492.41l.008.09v7c0 .276-.224.5-.5.5-.245 0-.45-.177-.492-.41l-.008-.09v-7c0-.276.224-.5.5-.5zM9.57 10c.246 0 .45.177.492.41l.008.09v7c0 .276-.224.5-.5.5-.245 0-.45-.177-.492-.41l-.008-.09v-7c0-.276.224-.5.5-.5zm5.992 0c.246 0 .45.177.492.41l.008.09v7c0 .276-.223.5-.5.5-.245 0-.45-.177-.492-.41l-.008-.09v-7c0-.276.224-.5.5-.5zm2.996-4.5H6.573c-.275 0-.499.224-.499.5 0 .245.177.45.41.492l.09.008h11.984c.276 0 .5-.224.5-.5s-.224-.5-.5-.5zm-3.995-2h-3.995c-.245 0-.449.177-.491.41l-.008.09v.5h4.992l.001-.5c0-.245-.176-.45-.41-.492l-.089-.008z"/>
</svg>
